{
    "asset" : {
        "generator" : "Khronos glTF Blender I/O v1.7.33",
        "version" : "2.0"
    },
    "scene" : 0,
    "scenes" : [
        {
            "name" : "Scene",
            "nodes" : [
                0
            ]
        }
    ],
    "nodes" : [
        {
            "mesh" : 0,
            "name" : "Circle.021",
            "translation" : [
                -0.11995063722133636,
                -0.03489074110984802,
                -16.153900146484375
            ]
        }
    ],
    "materials" : [
        {
            "doubleSided" : true,
            "name" : "Material.006",
            "pbrMetallicRoughness" : {
                "baseColorFactor" : [
                    0.011087627150118351,
                    0.011087627150118351,
                    0.011087627150118351,
                    1
                ],
                "metallicFactor" : 0,
                "roughnessFactor" : 0
            }
        }
    ],
    "meshes" : [
        {
            "name" : "Circle.021",
            "primitives" : [
                {
                    "attributes" : {
                        "POSITION" : 0,
                        "NORMAL" : 1
                    },
                    "indices" : 2,
                    "material" : 0
                }
            ]
        }
    ],
    "accessors" : [
        {
            "bufferView" : 0,
            "componentType" : 5126,
            "count" : 3736,
            "max" : [
                1.2266899347305298,
                5.034617900848389,
                1.2266899347305298
            ],
            "min" : [
                -1.2266899347305298,
                0,
                -1.2266898155212402
            ],
            "type" : "VEC3"
        },
        {
            "bufferView" : 1,
            "componentType" : 5126,
            "count" : 3736,
            "type" : "VEC3"
        },
        {
            "bufferView" : 2,
            "componentType" : 5123,
            "count" : 22011,
            "type" : "SCALAR"
        }
    ],
    "bufferViews" : [
        {
            "buffer" : 0,
            "byteLength" : 44832,
            "byteOffset" : 0
        },
        {
            "buffer" : 0,
            "byteLength" : 44832,
            "byteOffset" : 44832
        },
        {
            "buffer" : 0,
            "byteLength" : 44022,
            "byteOffset" : 89664
        }
    ],
    "buffers" : [
        {
            "byteLength" : 133688,
            "uri" : "data:application/octet-stream;base64,"
        }
    ]
}
