{
    "asset" : {
        "generator" : "Khronos glTF Blender I/O v1.7.33",
        "version" : "2.0"
    },
    "scene" : 0,
    "scenes" : [
        {
            "name" : "Scene",
            "nodes" : [
                0
            ]
        }
    ],
    "nodes" : [
        {
            "mesh" : 0,
            "name" : "Circle.030",
            "rotation" : [
                0,
                -0.7215278148651123,
                0,
                0.6923854351043701
            ],
            "scale" : [
                -0.6435261368751526,
                0.6435260772705078,
                0.6435260772705078
            ],
            "translation" : [
                -7.984410285949707,
                0.008259441703557968,
                -16.15936279296875
            ]
        }
    ],
    "materials" : [
        {
            "doubleSided" : true,
            "name" : "Material.006",
            "pbrMetallicRoughness" : {
                "baseColorFactor" : [
                    0.011087627150118351,
                    0.011087627150118351,
                    0.011087627150118351,
                    1
                ],
                "metallicFactor" : 0,
                "roughnessFactor" : 0
            }
        }
    ],
    "meshes" : [
        {
            "name" : "Circle.030",
            "primitives" : [
                {
                    "attributes" : {
                        "POSITION" : 0,
                        "NORMAL" : 1
                    },
                    "indices" : 2,
                    "material" : 0
                }
            ]
        }
    ],
    "accessors" : [
        {
            "bufferView" : 0,
            "componentType" : 5126,
            "count" : 87406,
            "max" : [
                1.442321538925171,
                6.465119361877441,
                1.442321538925171
            ],
            "min" : [
                -1.4632539749145508,
                0,
                -1.4423213005065918
            ],
            "type" : "VEC3"
        },
        {
            "bufferView" : 1,
            "componentType" : 5126,
            "count" : 87406,
            "type" : "VEC3"
        },
        {
            "bufferView" : 2,
            "componentType" : 5125,
            "count" : 97836,
            "type" : "SCALAR"
        }
    ],
    "bufferViews" : [
        {
            "buffer" : 0,
            "byteLength" : 1048872,
            "byteOffset" : 0
        },
        {
            "buffer" : 0,
            "byteLength" : 1048872,
            "byteOffset" : 1048872
        },
        {
            "buffer" : 0,
            "byteLength" : 391344,
            "byteOffset" : 2097744
        }
    ],
    "buffers" : [
        {
            "byteLength" : 2489088,
            "uri" : "data:application/octet-stream;base64,"
        }
    ]
}
