{
    "asset" : {
        "generator" : "Khronos glTF Blender I/O v1.7.33",
        "version" : "2.0"
    },
    "scene" : 0,
    "scenes" : [
        {
            "name" : "Scene",
            "nodes" : [
                0
            ]
        }
    ],
    "nodes" : [
        {
            "mesh" : 0,
            "name" : "blackBishop",
            "scale" : [
                0.8459630012512207,
                0.8459634184837341,
                0.8459634184837341
            ]
        }
    ],
    "materials" : [
        {
            "doubleSided" : true,
            "name" : "Material.006",
            "pbrMetallicRoughness" : {
                "baseColorFactor" : [
                    0.011087627150118351,
                    0.011087627150118351,
                    0.011087627150118351,
                    1
                ],
                "metallicFactor" : 0,
                "roughnessFactor" : 0
            }
        }
    ],
    "meshes" : [
        {
            "name" : "Circle.027",
            "primitives" : [
                {
                    "attributes" : {
                        "POSITION" : 0,
                        "NORMAL" : 1,
                        "TEXCOORD_0" : 2
                    },
                    "indices" : 3,
                    "material" : 0
                }
            ]
        }
    ],
    "accessors" : [
        {
            "bufferView" : 0,
            "componentType" : 5126,
            "count" : 2808,
            "max" : [
                1.1351126432418823,
                5.298842430114746,
                1.1351126432418823
            ],
            "min" : [
                -1.1351126432418823,
                0,
                -1.1351125240325928
            ],
            "type" : "VEC3"
        },
        {
            "bufferView" : 1,
            "componentType" : 5126,
            "count" : 2808,
            "type" : "VEC3"
        },
        {
            "bufferView" : 2,
            "componentType" : 5126,
            "count" : 2808,
            "type" : "VEC2"
        },
        {
            "bufferView" : 3,
            "componentType" : 5123,
            "count" : 16644,
            "type" : "SCALAR"
        }
    ],
    "bufferViews" : [
        {
            "buffer" : 0,
            "byteLength" : 33696,
            "byteOffset" : 0
        },
        {
            "buffer" : 0,
            "byteLength" : 33696,
            "byteOffset" : 33696
        },
        {
            "buffer" : 0,
            "byteLength" : 22464,
            "byteOffset" : 67392
        },
        {
            "buffer" : 0,
            "byteLength" : 33288,
            "byteOffset" : 89856
        }
    ],
    "buffers" : [
        {
            "byteLength" : 123144,
            "uri" : "data:application/octet-stream;base64,"
        }
    ]
}
