{
    "asset" : {
        "generator" : "Khronos glTF Blender I/O v1.7.33",
        "version" : "2.0"
    },
    "scene" : 0,
    "scenes" : [
        {
            "name" : "Scene",
            "nodes" : [
                0
            ]
        }
    ],
    "nodes" : [
        {
            "mesh" : 0,
            "name" : "Circle.025",
            "scale" : [
                1.162688970565796,
                1.162688970565796,
                1.162688970565796
            ],
            "translation" : [
                3.823899745941162,
                0.00017517805099487305,
                -16.09416389465332
            ]
        }
    ],
    "materials" : [
        {
            "doubleSided" : true,
            "name" : "Material.006",
            "pbrMetallicRoughness" : {
                "baseColorFactor" : [
                    0.011087627150118351,
                    0.011087627150118351,
                    0.011087627150118351,
                    1
                ],
                "metallicFactor" : 0,
                "roughnessFactor" : 0
            }
        }
    ],
    "meshes" : [
        {
            "name" : "Circle.025",
            "primitives" : [
                {
                    "attributes" : {
                        "POSITION" : 0,
                        "NORMAL" : 1
                    },
                    "indices" : 2,
                    "material" : 0
                }
            ]
        }
    ],
    "accessors" : [
        {
            "bufferView" : 0,
            "componentType" : 5126,
            "count" : 3385,
            "max" : [
                1.0712908506393433,
                4.787836074829102,
                1.0712908506393433
            ],
            "min" : [
                -1.0712908506393433,
                0,
                -1.0712907314300537
            ],
            "type" : "VEC3"
        },
        {
            "bufferView" : 1,
            "componentType" : 5126,
            "count" : 3385,
            "type" : "VEC3"
        },
        {
            "bufferView" : 2,
            "componentType" : 5123,
            "count" : 20058,
            "type" : "SCALAR"
        }
    ],
    "bufferViews" : [
        {
            "buffer" : 0,
            "byteLength" : 40620,
            "byteOffset" : 0
        },
        {
            "buffer" : 0,
            "byteLength" : 40620,
            "byteOffset" : 40620
        },
        {
            "buffer" : 0,
            "byteLength" : 40116,
            "byteOffset" : 81240
        }
    ],
    "buffers" : [
        {
            "byteLength" : 121356,
            "uri" : "data:application/octet-stream;base64,"
        }
    ]
}
