{
    "asset" : {
        "generator" : "Khronos glTF Blender I/O v1.7.33",
        "version" : "2.0"
    },
    "scene" : 0,
    "scenes" : [
        {
            "name" : "Scene",
            "nodes" : [
                0
            ]
        }
    ],
    "nodes" : [
        {
            "mesh" : 0,
            "name" : "Circle.018",
            "translation" : [
                -12.055181503295898,
                4.716217517852783e-05,
                -16.031009674072266
            ]
        }
    ],
    "materials" : [
        {
            "doubleSided" : true,
            "name" : "Material.006",
            "pbrMetallicRoughness" : {
                "baseColorFactor" : [
                    0.011087627150118351,
                    0.011087627150118351,
                    0.011087627150118351,
                    1
                ],
                "metallicFactor" : 0,
                "roughnessFactor" : 0
            }
        }
    ],
    "meshes" : [
        {
            "name" : "Circle.018",
            "primitives" : [
                {
                    "attributes" : {
                        "POSITION" : 0,
                        "NORMAL" : 1
                    },
                    "indices" : 2,
                    "material" : 0
                }
            ]
        }
    ],
    "accessors" : [
        {
            "bufferView" : 0,
            "componentType" : 5126,
            "count" : 1386,
            "max" : [
                1.172955870628357,
                3.6676926612854004,
                1.1729559898376465
            ],
            "min" : [
                -1.172955870628357,
                0,
                -1.1729557514190674
            ],
            "type" : "VEC3"
        },
        {
            "bufferView" : 1,
            "componentType" : 5126,
            "count" : 1386,
            "type" : "VEC3"
        },
        {
            "bufferView" : 2,
            "componentType" : 5123,
            "count" : 8082,
            "type" : "SCALAR"
        }
    ],
    "bufferViews" : [
        {
            "buffer" : 0,
            "byteLength" : 16632,
            "byteOffset" : 0
        },
        {
            "buffer" : 0,
            "byteLength" : 16632,
            "byteOffset" : 16632
        },
        {
            "buffer" : 0,
            "byteLength" : 16164,
            "byteOffset" : 33264
        }
    ],
    "buffers" : [
        {
            "byteLength" : 49428,
            "uri" : "data:application/octet-stream;base64,"
        }
    ]
}
